<?xml version="1.0" encoding="UTF-8" standalone="no"?>
<!DOCTYPE svg PUBLIC "-//W3C//DTD SVG 1.1//EN" "http://www.w3.org/Graphics/SVG/1.1/DTD/svg11.dtd">
<svg version="1.1" xmlns="http://www.w3.org/2000/svg" xmlns:xlink="http://www.w3.org/1999/xlink" preserveAspectRatio="xMidYMid meet" viewBox="0 0 640 640" width="300" height="300"><defs><path d="M320 626.61C148.61 626.61 9.67 488.79 9.67 318.77C9.67 148.75 148.61 10.92 320 10.92C491.39 10.92 630.33 148.75 630.33 318.77C630.33 488.79 491.39 626.61 320 626.61Z" id="hmUtufz8Y"></path><path d="M319.78 11.57C236.26 11.57 168.31 79.64 168.31 163.31C168.31 246.98 236.26 315.05 319.78 315.05C405.71 315.05 475.62 385.08 475.62 471.16C475.62 517.85 454.92 561.75 418.82 591.59C419.71 593.12 426.84 605.34 427.73 606.86C469.52 591.48 506.87 567.64 538.76 536.01C597.26 477.98 629.47 400.84 629.47 318.78C629.47 236.72 597.26 159.57 538.76 101.55C480.27 43.53 402.5 11.57 319.78 11.57Z" id="g2e56F8tfj"></path><path d="M319.78 11.57C314.45 11.57 309.18 11.85 303.98 12.39C378.09 17.72 447.03 48.91 500.1 101.55C558.59 159.57 590.8 236.72 590.8 318.78C590.8 400.84 558.59 477.98 500.1 536C476.29 559.62 449.43 578.89 419.96 593.54C420.73 594.87 426.96 605.53 427.73 606.86C469.52 591.47 506.87 567.64 538.76 536C597.26 477.98 629.47 400.84 629.47 318.78C629.47 236.72 597.26 159.57 538.76 101.55C480.27 43.53 402.5 11.57 319.78 11.57Z" id="fLqeY9Ve6"></path><path d="M332.5 511.57C311.78 511.57 294.98 494.9 294.98 474.35C294.98 453.8 311.78 437.14 332.5 437.14C353.21 437.14 370 453.8 370 474.35C370 494.9 353.21 511.57 332.5 511.57Z" id="b4kaFXWh5"></path><path d="M313.16 442.46C324.05 448.98 331.34 460.82 331.34 474.35C331.34 487.89 324.05 499.73 313.16 506.24C318.81 509.62 325.42 511.57 332.5 511.57C353.21 511.57 370 494.9 370 474.35C370 453.81 353.21 437.14 332.5 437.14C325.42 437.14 318.81 439.09 313.16 442.46Z" id="azl6AWklv"></path><path d="M332.5 188.57C311.78 188.57 294.98 171.9 294.98 151.36C294.98 130.8 311.78 114.14 332.5 114.14C353.21 114.14 370 130.8 370 151.36C370 171.9 353.21 188.57 332.5 188.57Z" id="a66vbnTnK"></path><path d="M313.16 119.46C324.05 125.97 331.34 137.82 331.34 151.36C331.34 164.89 324.05 176.73 313.16 183.25C318.81 186.62 325.42 188.57 332.5 188.57C353.21 188.57 370 171.91 370 151.36C370 130.8 353.21 114.14 332.5 114.14C325.42 114.14 318.81 116.09 313.16 119.46Z" id="aHm5MuGTs"></path><path d="M574.09 141.72C569.63 144.63 568.39 150.58 571.33 155C603.6 203.64 620.66 260.27 620.66 318.77C620.66 398.44 589.39 473.34 532.6 529.67C501.52 560.5 464.82 583.73 424.81 598.46C461.46 568.17 484.86 522.34 484.86 471.15C484.86 380.13 410.91 306.09 320 306.09C241.46 306.09 177.55 242.03 177.55 163.3C177.55 84.57 241.46 20.51 320 20.51C407.61 20.51 490.68 58.31 547.92 124.23C551.4 128.25 557.5 128.7 561.55 125.24C565.59 121.79 566.04 115.73 562.56 111.72C501.66 41.56 413.25 1.33 320 1.33C234.53 1.33 154.17 34.35 93.73 94.31C33.29 154.26 0 233.98 0 318.77C0 326.39 0.27 334.1 0.82 341.67C1.18 346.72 5.42 350.58 10.45 350.58C10.68 350.58 10.92 350.57 11.15 350.55C16.47 350.18 20.48 345.59 20.11 340.31C19.59 333.19 19.33 325.94 19.33 318.77C19.33 239.1 50.61 164.2 107.4 107.87C138.99 76.52 176.39 53.02 217.18 38.34C181.2 68.07 158.22 113.05 158.22 163.3C158.22 252.61 230.79 325.26 320 325.26C400.25 325.26 465.53 390.71 465.53 471.15C465.53 551.58 400.25 617.02 320 617.02C250.12 617.02 182.05 592.72 128.33 548.58C75.3 505 38.68 444.35 25.21 377.78C24.17 372.59 19.07 369.23 13.84 370.27C8.6 371.31 5.21 376.37 6.26 381.56C20.6 452.42 59.57 516.98 116 563.35C173.18 610.33 245.62 636.2 320 636.2C405.47 636.2 485.83 603.19 546.27 543.23C606.71 483.27 640 403.56 640 318.77C640 256.51 621.84 196.24 587.48 144.45C584.54 140.03 578.55 138.81 574.09 141.72Z" id="b46qedYP3"></path><path d="M332.49 427.55C306.48 427.55 285.31 448.55 285.31 474.35C285.31 500.16 306.48 521.15 332.49 521.15C358.51 521.15 379.67 500.16 379.67 474.35C379.67 448.55 358.51 427.55 332.49 427.55ZM332.5 446.73C347.85 446.73 360.34 459.12 360.34 474.35C360.34 489.59 347.85 501.98 332.5 501.98C317.14 501.98 304.65 489.59 304.65 474.35C304.65 459.12 317.14 446.73 332.5 446.73Z" id="j9mu2I2SPd"></path><path d="M332.5 198.16C358.51 198.16 379.67 177.16 379.67 151.36C379.67 125.55 358.51 104.55 332.5 104.55C306.48 104.55 285.32 125.55 285.32 151.36C285.32 177.16 306.48 198.16 332.5 198.16ZM332.49 178.97C317.14 178.97 304.65 166.58 304.65 151.36C304.65 136.12 317.14 123.73 332.49 123.73C347.85 123.73 360.34 136.12 360.34 151.36C360.34 166.58 347.85 178.97 332.49 178.97Z" id="ayQbLDUpP"></path></defs><g><g><g><use xlink:href="#hmUtufz8Y" opacity="1" fill="#42aee9" fill-opacity="1"></use><g><use xlink:href="#hmUtufz8Y" opacity="1" fill-opacity="0" stroke="#000000" stroke-width="1" stroke-opacity="0"></use></g></g><g><use xlink:href="#g2e56F8tfj" opacity="1" fill="#2a2e32" fill-opacity="1"></use><g><use xlink:href="#g2e56F8tfj" opacity="1" fill-opacity="0" stroke="#000000" stroke-width="1" stroke-opacity="0"></use></g></g><g><use xlink:href="#fLqeY9Ve6" opacity="1" fill="#42474d" fill-opacity="1"></use><g><use xlink:href="#fLqeY9Ve6" opacity="1" fill-opacity="0" stroke="#000000" stroke-width="1" stroke-opacity="0"></use></g></g><g><use xlink:href="#b4kaFXWh5" opacity="1" fill="#696867" fill-opacity="1"></use><g><use xlink:href="#b4kaFXWh5" opacity="1" fill-opacity="0" stroke="#000000" stroke-width="1" stroke-opacity="0"></use></g></g><g><use xlink:href="#azl6AWklv" opacity="1" fill="#544f4f" fill-opacity="1"></use><g><use xlink:href="#azl6AWklv" opacity="1" fill-opacity="0" stroke="#000000" stroke-width="1" stroke-opacity="0"></use></g></g><g><use xlink:href="#a66vbnTnK" opacity="1" fill="#42aee9" fill-opacity="1"></use><g><use xlink:href="#a66vbnTnK" opacity="1" fill-opacity="0" stroke="#000000" stroke-width="1" stroke-opacity="0"></use></g></g><g><use xlink:href="#aHm5MuGTs" opacity="1" fill="#317ba4" fill-opacity="1"></use><g><use xlink:href="#aHm5MuGTs" opacity="1" fill-opacity="0" stroke="#000000" stroke-width="1" stroke-opacity="0"></use></g></g><g><use xlink:href="#b46qedYP3" opacity="1" fill="#18191b" fill-opacity="1"></use><g><use xlink:href="#b46qedYP3" opacity="1" fill-opacity="0" stroke="#000000" stroke-width="1" stroke-opacity="0"></use></g></g><g><use xlink:href="#j9mu2I2SPd" opacity="1" fill="#18191b" fill-opacity="1"></use><g><use xlink:href="#j9mu2I2SPd" opacity="1" fill-opacity="0" stroke="#000000" stroke-width="1" stroke-opacity="0"></use></g></g><g><use xlink:href="#ayQbLDUpP" opacity="1" fill="#18191b" fill-opacity="1"></use><g><use xlink:href="#ayQbLDUpP" opacity="1" fill-opacity="0" stroke="#000000" stroke-width="1" stroke-opacity="0"></use></g></g></g></g></svg>