<?xml version="1.0" encoding="UTF-8" standalone="no"?>
<!DOCTYPE svg PUBLIC "-//W3C//DTD SVG 1.1//EN" "http://www.w3.org/Graphics/SVG/1.1/DTD/svg11.dtd">
<svg version="1.1" xmlns="http://www.w3.org/2000/svg" xmlns:xlink="http://www.w3.org/1999/xlink" preserveAspectRatio="xMidYMid meet" viewBox="-1 130.99124726477024 643.9999999999999 380.01750547045947" width="630" height="350"><defs><path d="M70.02 131.99C31.51 131.99 0 163.5 0 202.01C0 225.61 0 414.39 0 437.99C0 476.5 31.51 508.01 70.02 508.01C99.22 508.01 332.81 508.01 362.01 508.01C400.53 508.01 432.04 476.5 432.04 437.99C432.04 414.39 432.04 225.61 432.04 202.01C432.04 162.8 400.53 131.99 362.01 131.99C303.61 131.99 99.22 131.99 70.02 131.99Z" id="dGI1t57H"></path><path d="M576.28 175.86C569 180.07 532.59 201.07 467.05 238.88L467.05 401.34C533.01 439.15 569.65 460.15 576.98 464.36C597.29 476.26 622.49 469.26 634.4 448.95C637.9 442.65 640 435.65 640 427.94C640 406.31 640 233.21 640 211.58C640 185.67 615.49 164.66 588.18 170.96C583.98 171.66 579.78 173.76 576.28 175.86Z" id="b11ayLUm0S"></path></defs><g><g><use xlink:href="#dGI1t57H" opacity="1" fill="#42aee9" fill-opacity="1"></use><g><use xlink:href="#dGI1t57H" opacity="1" fill-opacity="0" stroke="#000000" stroke-width="1" stroke-opacity="0"></use></g></g><g><use xlink:href="#b11ayLUm0S" opacity="1" fill="#42aee9" fill-opacity="1"></use><g><use xlink:href="#b11ayLUm0S" opacity="1" fill-opacity="0" stroke="#000000" stroke-width="1" stroke-opacity="0"></use></g></g></g></svg>